<?xml version="1.0" encoding="utf-8"?>
<!-- Generator: Adobe Illustrator 25.4.1, SVG Export Plug-In . SVG Version: 6.00 Build 0)  -->
<svg version="1.1" id="Слой_1" xmlns="http://www.w3.org/2000/svg" xmlns:xlink="http://www.w3.org/1999/xlink" x="0px" y="0px"
	 viewBox="0 0 16 16" style="enable-background:new 0 0 16 16;" xml:space="preserve">
<style type="text/css">
	.st0{fill:#FD7E14;}
</style>
<g>
	<path class="st0" d="M2,15.9c-1,0-1.9-0.8-1.9-1.9V2C0.1,1,1,0.1,2,0.1h12c1,0,1.9,0.8,1.9,1.9v12c0,1-0.8,1.9-1.9,1.9H2z
		 M3.7,14.1h8.9l-2.1-1.8l-4.8,0V8.8h2.5l1.7-1.7L10,6.9H5.6V3.7h5l1.7-1.6l0.2-0.2H3.7V14.1z"/>
	<path d="M14,0.2c1,0,1.8,0.8,1.8,1.8v12c0,1-0.8,1.8-1.8,1.8H2c-1,0-1.8-0.8-1.8-1.8V2C0.2,1,1,0.2,2,0.2H14 M3.5,14.2h0.2h8.4h0.7
		l-0.5-0.4l-1.9-1.6l-0.1-0.1h-0.1H5.8V8.9h2.3h0.1l0.1-0.1l1.6-1.6l0.4-0.4H9.7h-4V3.9h4.9h0.1l0.1-0.1l1.6-1.6l0.4-0.4h-0.6H3.8
		H3.5V2v12V14.2 M14,0H2C0.9,0,0,0.9,0,2v12c0,1.1,0.9,2,2,2h12c1.1,0,2-0.9,2-2V2C16,0.9,15.1,0,14,0L14,0z M12.2,2l-1.6,1.6H5.5
		v3.4h4.2L8.1,8.7H5.5v3.7h4.8l1.9,1.6H3.8V2H12.2L12.2,2z"/>
</g>
</svg>
