<svg xmlns="http://www.w3.org/2000/svg" viewBox="0 0 16 16"><path d="M2,15.88A1.89,1.89,0,0,1,.12,14V2A1.89,1.89,0,0,1,2,.12H14A1.89,1.89,0,0,1,15.88,2V14A1.89,1.89,0,0,1,14,15.88Zm8.39-1.63h2L12.33,3.58,10.57,1.79l-.21-.21v6.3H5.6V1.58L3.66,3.49l0,10.76h2V9.75h4.74Z" fill="#ffc107"/><path d="M14,.25A1.76,1.76,0,0,1,15.75,2V14A1.76,1.76,0,0,1,14,15.75H2A1.76,1.76,0,0,1,.25,14V2A1.76,1.76,0,0,1,2,.25H14m-3.77,7.5H5.73V1.28L5.3,1.7,3.57,3.4l-.07.08V14.37H5.77V9.88h4.5v4.49H12.5v-.25l0-10.54V3.47l-.07-.07L10.66,1.7l-.43-.42V7.75M14,0H2A2,2,0,0,0,0,2V14a2,2,0,0,0,2,2H14a2,2,0,0,0,2-2V2a2,2,0,0,0-2-2ZM5.48,8h5V1.88l1.73,1.7,0,10.54H10.52V9.63h-5v4.49H3.75V3.58l1.73-1.7V8Z"/></svg>