<svg xmlns="http://www.w3.org/2000/svg" viewBox="0 0 16 16"><path d="M2,15.88A1.89,1.89,0,0,1,.12,14V2A1.89,1.89,0,0,1,2,.12H14A1.89,1.89,0,0,1,15.88,2V14A1.89,1.89,0,0,1,14,15.88Zm9.88-.39,1.43-1.33L12,12.6l.65-.65,0-8.87L11,1.36l-6.21,0L3.1,3l0,10.63h7.28Z" fill="#198754"/><path d="M14,.25A1.76,1.76,0,0,1,15.75,2V14A1.76,1.76,0,0,1,14,15.75H2A1.76,1.76,0,0,1,.25,14V2A1.76,1.76,0,0,1,2,.25H14M2.94,13.74h7.34l1.42,1.73.17.2.19-.18,1.25-1.16.18-.16L13.33,14l-1.2-1.39L12.7,12l.07-.08V3L12.7,2.9,11.07,1.27,11,1.2H4.72l-.08.07L3,2.9,2.94,3V13.74M14,0H2A2,2,0,0,0,0,2V14a2,2,0,0,0,2,2H14a2,2,0,0,0,2-2V2a2,2,0,0,0-2-2ZM3.19,13.49V3.08L4.82,1.45h6.07l1.63,1.63v8.78l-.73.73,1.35,1.56-1.25,1.16L10.4,13.49Z"/><polygon points="5.04 11.73 5.04 3.21 10.66 3.21 10.66 11.18 9.05 9.3 6.35 9.3 8.83 11.73 5.04 11.73" fill="#198754"/><path d="M10.54,3.33v7.52L9.18,9.27,9.1,9.18h-3l.44.43,2,2H5.17V3.33h5.37m.25-.25H4.92v8.78H9.14L6.66,9.43H9l1.8,2.09V3.08Z"/></svg>