<svg xmlns="http://www.w3.org/2000/svg" viewBox="0 0 16 16"><path d="M2,15.88A1.89,1.89,0,0,1,.12,14V2A1.89,1.89,0,0,1,2,.12H14A1.89,1.89,0,0,1,15.88,2V14A1.89,1.89,0,0,1,14,15.88Zm.15-1.76h8.66l1.75-1.76,0-5.48H5.25V3.75h6.61l1.79-1.66.22-.21H5.06L3.3,3.56l0,5.21h7.31v3.49H4Z" fill="#6f42c1"/><path d="M14,.25A1.76,1.76,0,0,1,15.75,2V14A1.76,1.76,0,0,1,14,15.75H2A1.76,1.76,0,0,1,.25,14V2A1.76,1.76,0,0,1,2,.25H14M3.14,8.9h7.31v3.24H3.89l-.07.08L2.26,13.83l-.41.42h9.07l.07-.08,1.66-1.73.07-.07V6.75H5.38V3.88H12L12,3.81l1.7-1.63.45-.43H5l-.08.07L3.21,3.47l-.07.08V8.9M14,0H2A2,2,0,0,0,0,2V14a2,2,0,0,0,2,2H14a2,2,0,0,0,2-2V2a2,2,0,0,0-2-2Zm-.44,2-1.7,1.63H5.13V7h7.34v5.27L10.81,14H2.44L4,12.39h6.7V8.65H3.39v-5L5.06,2Z"/></svg>