<svg xmlns="http://www.w3.org/2000/svg" viewBox="0 0 16 16"><path d="M2,15.88A1.89,1.89,0,0,1,.12,14V2A1.89,1.89,0,0,1,2,.12H14A1.89,1.89,0,0,1,15.88,2V14A1.89,1.89,0,0,1,14,15.88Zm5-1.76H9V3.73h2.41l1.75-1.64.22-.21H2.62L4.55,3.7,7,3.73Z" fill="#0d6efd"/><path d="M14,.25A1.76,1.76,0,0,1,15.75,2V14A1.76,1.76,0,0,1,14,15.75H2A1.76,1.76,0,0,1,.25,14V2A1.76,1.76,0,0,1,2,.25H14M4.54,3.86H6.89V14.25H9.13V3.86h2.38l.07-.07,1.66-1.61.45-.43H2.3l.46.43L4.47,3.79l.07.07M14,0H2A2,2,0,0,0,0,2V14a2,2,0,0,0,2,2H14a2,2,0,0,0,2-2V2a2,2,0,0,0-2-2ZM4.64,3.61,2.93,2H13.07L11.41,3.61H8.88V14H7.14V3.61Z"/></svg>