<svg xmlns="http://www.w3.org/2000/svg" viewBox="0 0 16 16"><path d="M2,15.88A1.89,1.89,0,0,1,.12,14V2A1.89,1.89,0,0,1,2,.12H14A1.89,1.89,0,0,1,15.88,2V14A1.89,1.89,0,0,1,14,15.88ZM6.23,12.2v1.92h2V11.23Zm0-.55,2-1V9h4.2V3.8L10.56,1.91l-7.14,0L5.25,3.7l5.09,0v3.5H6.23Z" fill="#dee2e6"/><path d="M14,.25A1.76,1.76,0,0,1,15.75,2V14A1.76,1.76,0,0,1,14,15.75H2A1.76,1.76,0,0,1,.25,14V2A1.76,1.76,0,0,1,2,.25H14M5.24,3.86h5V7.1H6.11v4.75l.36-.18,1.73-.85.14-.06V9.15h4.19V3.7l-.07-.08-1.81-1.8-.08-.07H3.11l.43.43L5.16,3.79l.08.07m.87,10.39H8.34V11L8,11.21l-1.73.85-.14.06v2.13M14,0H2A2,2,0,0,0,0,2V14a2,2,0,0,0,2,2H14a2,2,0,0,0,2-2V2a2,2,0,0,0-2-2ZM5.34,3.61,3.72,2h6.75l1.81,1.8V8.9H8.09v1.7l-1.73.85V7.35h4.11V3.61ZM6.36,14V12.28l1.73-.85V14Z"/></svg>