<svg xmlns="http://www.w3.org/2000/svg" xmlns:xlink="http://www.w3.org/1999/xlink" viewBox="0 0 512.20984 443.58673"><defs><linearGradient id="a" x1="184.69189" y1="354.29395" x2="184.69189" y2="418.71777" gradientUnits="userSpaceOnUse"><stop offset="0" stop-color="#fff"/><stop offset="1" stop-color="#fff" stop-opacity="0.75"/></linearGradient><linearGradient id="b" x1="257.65552" y1="354.29395" x2="257.65552" y2="418.71777" xlink:href="#a"/><linearGradient id="c" x1="332.22363" y1="354.29395" x2="332.22363" y2="418.71777" xlink:href="#a"/></defs><polygon points="256.105 0 0 443.587 512.21 443.587 256.105 0"/><polygon points="256.21 40.087 35.21 423.087 477.21 423.087 256.21 40.087" fill="#ffe000"/><polygon points="256.21 90.087 78.21 398.087 434.21 398.087 256.21 90.087"/><path d="M195.69043,408.083H173.08984l-3.14013,10.63476H149.62354L173.8374,354.294h21.71436l24.20849,64.42382H198.91357ZM191.561,394.15234l-7.11084-23.15918-7.03663,23.15918Z" transform="translate(0.20984 -33.91327)" fill="url(#a)"/><path d="M226.8501,354.294H245.439l24.25831,35.64257V354.294h18.76367v64.42382H269.69727l-24.12647-35.373v35.373H226.8501Z" transform="translate(0.20984 -33.91327)" fill="url(#b)"/><path d="M302.582,354.294H332.1582q8.74365,0,14.12793,2.373a22.97926,22.97926,0,0,1,8.89942,6.81153,28.201,28.201,0,0,1,5.09765,10.32714,47.9247,47.9247,0,0,1,1.582,12.48047q0,10.32716-2.35156,16.01856a26.50127,26.50127,0,0,1-6.52539,9.53515,21.294,21.294,0,0,1-8.96484,5.12012,46.191,46.191,0,0,1-11.86524,1.75781H302.582Zm19.9082,14.58984V404.084h4.877q6.24022,0,8.877-1.38476a9.3776,9.3776,0,0,0,4.13086-4.834q1.49413-3.44823,1.49414-11.18359,0-10.23925-3.33984-14.01855t-11.07422-3.7793Z" transform="translate(0.20984 -33.91327)" fill="url(#c)"/><path d="M243.32925,211.255a147.22083,147.22083,0,0,1,39.8545,2.5661c13.1438,2.80026,26.14959,7.37608,37.87594,14.8213,1.45746.94121,2.91727,1.88442,4.31818,2.93113,1.43591.99177,2.79141,2.11073,4.16687,3.20611a66.82507,66.82507,0,0,1,7.61474,7.44663,54.432,54.432,0,0,1,6.3563,8.83481,46.457,46.457,0,0,1,4.45886,10.22341,43.009,43.009,0,0,1,1.79922,11.21277,36.68761,36.68761,0,0,1-1.588,11.64646,47.04147,47.04147,0,0,1-11.94259,19.19381,64.50985,64.50985,0,0,1-8.38932,7.01343,79.1362,79.1362,0,0,1-9.14688,5.62256,86.33106,86.33106,0,0,1-9.65411,4.38538c-3.275,1.29306-6.608,2.38552-9.969,3.34027a121.04766,121.04766,0,0,1-20.4819,3.84436,129.84685,129.84685,0,0,1-20.77084.4545c-13.91437-.94053-27.82634-4.31305-40.35375-11.33844a53.85561,53.85561,0,0,1-16.71585-14.1785,36.03356,36.03356,0,0,1-5.42152-10.26947,31.08191,31.08191,0,0,1-1.25281-5.84747,24.87866,24.87866,0,0,1-.19311-2.99769,13.07962,13.07962,0,0,1,.0229-1.53662c.03741-.52127.03342-1.0462.11476-1.56247a26.42131,26.42131,0,0,1,4.12935-11.42129,36.04361,36.04361,0,0,1,7.69932-8.45212,57.56737,57.56737,0,0,1,19.09333-9.8376,82.19707,82.19707,0,0,1,20.59655-3.51718,72.4689,72.4689,0,0,1,20.86634,1.874,56.96718,56.96718,0,0,1,10.06787,3.4801,43.34157,43.34157,0,0,1,9.29709,5.67556,28.30689,28.30689,0,0,1,7.36444,8.72375,20.99471,20.99471,0,0,1,2.02383,5.69058,18.39887,18.39887,0,0,1,.168,6.2284,9.904,9.904,0,0,1-.33975,1.56155c-.14249.51129-.25659,1.03833-.43747,1.53l-.61908,1.43719a8.214,8.214,0,0,1-.70175,1.3747,17.85275,17.85275,0,0,1-1.69281,2.49353l-.93753,1.14743c-.32138.36978-.67948.68664-1.01944,1.03015a31.9633,31.9633,0,0,1-9.2189,6.14359,44.2653,44.2653,0,0,1-10.16434,3.19268,54.21653,54.21653,0,0,1-10.44061,1.01227,40.49317,40.49317,0,0,1-20.54392-5.07242,20.63137,20.63137,0,0,1-8.012-8.03042,14.09081,14.09081,0,0,1-1.45625-6.00192,11.20879,11.20879,0,0,1,1.88679-6.08292,16.38966,16.38966,0,0,1,4.09786-4.204,25.209,25.209,0,0,1,4.86088-2.62283,33.27121,33.27121,0,0,1,10.387-2.2146c.87771-.04227,1.75352-.04288,2.63217-.05134.88948.04392,1.7784.05735,2.66405.175a25.74419,25.74419,0,0,1,5.25284,1.0748A21.82225,21.82225,0,0,1,266.5231,268.84a14.04819,14.04819,0,0,1,4.20984,3.9274,8.85737,8.85737,0,0,1,1.508,6.07141,8.55,8.55,0,0,1-3.25537,5.2532,18.19911,18.19911,0,0,1-10.201,3.568,17.29821,17.29821,0,0,1-10.46978-2.32122,9.37086,9.37086,0,0,1-2.19912-1.94422,6.19537,6.19537,0,0,1-1.36158-2.87384,4.94759,4.94759,0,0,1,.54494-3.33435,6.755,6.755,0,0,1,2.128-2.238,11.89478,11.89478,0,0,1,5.21048-1.82675,13.10083,13.10083,0,0,1,5.40372.39984,8.88947,8.88947,0,0,1,2.557,1.231,5.13971,5.13971,0,0,1,1.93643,2.44379,3.75667,3.75667,0,0,1,.15774,1.7558,3.53042,3.53042,0,0,1-.74518,1.5892,5.65439,5.65439,0,0,1-2.47461,1.67688,8.93779,8.93779,0,0,1-5.47233.21957,5.0353,5.0353,0,0,1-2.51787-1.57827,2.78372,2.78372,0,0,1-.626-1.64441,2.3785,2.3785,0,0,1,.69423-1.70954,4.61576,4.61576,0,0,1,2.6871-1.23611,5.46109,5.46109,0,0,1,2.82688.29956,3.11593,3.11593,0,0,1,1.29238.94138,1.77121,1.77121,0,0,1,.22727,1.91534,2.3988,2.3988,0,0,1-1.32575,1.05527,4.08646,4.08646,0,0,1-1.451.23608.64989.64989,0,0,1-.01879-1.29938l.01879-.00061a2.77121,2.77121,0,0,0,.96719-.19156,1.09327,1.09327,0,0,0,.5744-.43945c.03769-.08215.02542-.209-.12158-.38824a1.72046,1.72046,0,0,0-.71137-.45221,3.92965,3.92965,0,0,0-3.74555.691.67128.67128,0,0,0-.20632.51562,1.067,1.067,0,0,0,.281.60245,3.32688,3.32688,0,0,0,1.66083.90835,7.06346,7.06346,0,0,0,4.22969-.33349,3.63438,3.63438,0,0,0,1.54218-1.09238,1.235,1.235,0,0,0,.17434-1.303A4.49415,4.49415,0,0,0,257.376,275.818a10.64808,10.64808,0,0,0-4.38449-.148,9.28759,9.28759,0,0,0-3.981,1.53244,4.0819,4.0819,0,0,0-1.21563,1.33448,2.0169,2.0169,0,0,0-.17528,1.44534,4.692,4.692,0,0,0,2.33442,2.75912,11.96147,11.96147,0,0,0,4.0739,1.43409,17.48017,17.48017,0,0,0,4.49088.112,14.79019,14.79019,0,0,0,8.09878-3.03158,4.81337,4.81337,0,0,0,1.81052-2.955,4.99348,4.99348,0,0,0-.99121-3.25577c-1.52014-2.08316-4.28781-3.52609-7.13159-4.302a21.38262,21.38262,0,0,0-4.43355-.75885c-.75084-.07919-1.51082-.0607-2.26616-.07815-.766.03466-1.53827.05783-2.30254.11843a28.52569,28.52569,0,0,0-8.78886,2.15119,20.26324,20.26324,0,0,0-3.75079,2.17032,11.2361,11.2361,0,0,0-2.67739,2.90057,5.84915,5.84915,0,0,0-.923,3.2366,8.64653,8.64653,0,0,0,.9834,3.47879,15.08854,15.08854,0,0,0,6.01082,5.50892,34.451,34.451,0,0,0,17.50072,3.66464,47.58753,47.58753,0,0,0,9.16293-1.13788,37.39553,37.39553,0,0,0,8.56308-2.93863,24.88224,24.88224,0,0,0,7.01624-4.91278,11.58169,11.58169,0,0,0,3.44171-6.50769,12.46335,12.46335,0,0,0,.04846-1.75034,6.17374,6.17374,0,0,0-.09637-.92349,6.01335,6.01335,0,0,0-.16971-.915,13.23271,13.23271,0,0,0-1.38162-3.53992,20.44482,20.44482,0,0,0-5.49836-6.0867,41.749,41.749,0,0,0-16.30673-7.09448,57.98911,57.98911,0,0,0-9.09677-1.27484,69.85344,69.85344,0,0,0-9.28487.05512,72.93133,72.93133,0,0,0-18.17328,3.50842,47.97376,47.97376,0,0,0-15.667,8.44732c-4.39435,3.68317-7.47035,8.42673-7.83389,13.22208-.04807.29822-.01755.60141-.03563.90082a5.997,5.997,0,0,0,.01547.9306,14.73332,14.73332,0,0,0,.183,1.92264,20.48658,20.48658,0,0,0,.921,3.76965,25.28426,25.28426,0,0,0,3.99242,6.99533A42.82826,42.82826,0,0,0,223.03185,306.56c10.682,5.56927,23.10652,8.19375,35.43431,8.58371a121.59986,121.59986,0,0,0,18.67511-.86219c3.10363-.339,6.17739-.856,9.23187-1.4342,3.04239-.62808,6.06717-1.32928,9.039-2.17307a92.29858,92.29858,0,0,0,17.11987-6.60473,65.8885,65.8885,0,0,0,7.76841-4.55,51.50525,51.50525,0,0,0,6.87088-5.49322,34.55439,34.55439,0,0,0,9.33444-13.62156,24.555,24.555,0,0,0,1.37265-7.79519,34.74373,34.74373,0,0,0-.96735-8.28754,35.25254,35.25254,0,0,0-2.99264-8.01685,43.77541,43.77541,0,0,0-4.76926-7.44567,68.9206,68.9206,0,0,0-13.249-12.668,99.55069,99.55069,0,0,0-16.27033-9.64011,127.7198,127.7198,0,0,0-17.92248-6.978,172.705,172.705,0,0,0-38.37815-7.01841.65173.65173,0,0,1,0-1.3Z" transform="translate(0.20984 -33.91327)" fill="#ffe000"/><path d="M269.35272,343.805a147.22069,147.22069,0,0,1-39.85447-2.5661c-13.14382-2.80026-26.14962-7.37607-37.876-14.82129-1.45746-.94119-2.91728-1.8844-4.31819-2.93112-1.4359-.99176-2.79141-2.11072-4.16686-3.20609a66.82683,66.82683,0,0,1-7.61476-7.44662,54.4317,54.4317,0,0,1-6.35628-8.83481,46.45724,46.45724,0,0,1-4.4589-10.22342,43.011,43.011,0,0,1-1.79923-11.21277,36.68836,36.68836,0,0,1,1.588-11.64645,47.0419,47.0419,0,0,1,11.94258-19.19383A64.51118,64.51118,0,0,1,184.828,244.709a79.13273,79.13273,0,0,1,9.14688-5.62254,86.32736,86.32736,0,0,1,9.65411-4.38539c3.275-1.29308,6.608-2.38553,9.969-3.34029a121.04709,121.04709,0,0,1,20.4819-3.84438,129.85266,129.85266,0,0,1,20.77084-.45451c13.91436.94054,27.82634,4.313,40.35375,11.33844a53.85535,53.85535,0,0,1,16.71588,14.17848,36.0344,36.0344,0,0,1,5.42151,10.26949,31.07932,31.07932,0,0,1,1.25281,5.84747,24.87391,24.87391,0,0,1,.19311,2.99765,13.07571,13.07571,0,0,1-.02289,1.53665c-.03741.52124-.03341,1.04621-.11477,1.56244a26.42116,26.42116,0,0,1-4.12934,11.4213,36.04518,36.04518,0,0,1-7.69931,8.45215,57.56792,57.56792,0,0,1-19.09332,9.83758,82.1981,82.1981,0,0,1-20.59656,3.51721,72.47,72.47,0,0,1-20.86633-1.874,56.966,56.966,0,0,1-10.06786-3.4801,43.34128,43.34128,0,0,1-9.29712-5.67554,28.30676,28.30676,0,0,1-7.36444-8.72375,20.9943,20.9943,0,0,1-2.02382-5.69059,18.398,18.398,0,0,1-.168-6.22839,9.90262,9.90262,0,0,1,.33975-1.56155c.14247-.5113.25659-1.03833.43747-1.53l.61908-1.4372a8.21314,8.21314,0,0,1,.70174-1.37469,17.85012,17.85012,0,0,1,1.69281-2.49353l.93753-1.14743c.32139-.36978.67946-.68665,1.01942-1.03015a31.96332,31.96332,0,0,1,9.21892-6.14359,44.26348,44.26348,0,0,1,10.16435-3.19269,54.21631,54.21631,0,0,1,10.4406-1.0123,40.49324,40.49324,0,0,1,20.54391,5.07242,20.63144,20.63144,0,0,1,8.01206,8.03043,14.09092,14.09092,0,0,1,1.45624,6.00192,11.20892,11.20892,0,0,1-1.88678,6.08292,16.39024,16.39024,0,0,1-4.09784,4.204,25.21147,25.21147,0,0,1-4.8609,2.62283,33.27149,33.27149,0,0,1-10.387,2.2146c-.87771.04227-1.75351.04288-2.63217.05133-.88946-.04388-1.77838-.05734-2.664-.175a25.74387,25.74387,0,0,1-5.25287-1.07483,21.82222,21.82222,0,0,1-4.98738-2.23611,14.049,14.049,0,0,1-4.20985-3.92743,8.85739,8.85739,0,0,1-1.508-6.07141,8.54971,8.54971,0,0,1,3.25539-5.25317,18.199,18.199,0,0,1,10.201-3.56809,17.29856,17.29856,0,0,1,10.46978,2.32123,9.37081,9.37081,0,0,1,2.19912,1.94421,6.19561,6.19561,0,0,1,1.36158,2.87384,4.94747,4.94747,0,0,1-.545,3.33435,6.75448,6.75448,0,0,1-2.128,2.238,11.89461,11.89461,0,0,1-5.21048,1.82675,13.101,13.101,0,0,1-5.40371-.39981,8.89048,8.89048,0,0,1-2.557-1.23105,5.13981,5.13981,0,0,1-1.93643-2.44375,3.75684,3.75684,0,0,1-.15773-1.7558,3.5303,3.5303,0,0,1,.74516-1.5892,5.65452,5.65452,0,0,1,2.47463-1.67691,8.93809,8.93809,0,0,1,5.47233-.21958,5.03543,5.03543,0,0,1,2.51785,1.57828,2.78376,2.78376,0,0,1,.626,1.64444,2.37852,2.37852,0,0,1-.69421,1.7095,4.61586,4.61586,0,0,1-2.68711,1.23612,5.46066,5.46066,0,0,1-2.82688-.29956,3.11592,3.11592,0,0,1-1.29239-.94138,1.7712,1.7712,0,0,1-.22727-1.91534,2.39878,2.39878,0,0,1,1.32573-1.05527,4.0875,4.0875,0,0,1,1.451-.23609.6499.6499,0,0,1,.0188,1.29941l-.0188.00058a2.77166,2.77166,0,0,0-.96719.19156,1.09363,1.09363,0,0,0-.57441.43945c-.03769.08219-.02542.209.1216.38828a1.72112,1.72112,0,0,0,.71135.45218,3.92973,3.92973,0,0,0,3.74558-.691.67118.67118,0,0,0,.20629-.51563,1.06667,1.06667,0,0,0-.281-.60241,3.32678,3.32678,0,0,0-1.66083-.90836,7.06292,7.06292,0,0,0-4.22967.3335,3.63424,3.63424,0,0,0-1.54221,1.09234,1.235,1.235,0,0,0-.17435,1.30295,4.49422,4.49422,0,0,0,3.07642,2.11618,10.64723,10.64723,0,0,0,4.38449.14807,9.2879,9.2879,0,0,0,3.98105-1.53247,4.08142,4.08142,0,0,0,1.21564-1.33447,2.017,2.017,0,0,0,.17526-1.44534,4.69219,4.69219,0,0,0-2.33441-2.75913,11.96185,11.96185,0,0,0-4.07392-1.43408,17.48,17.48,0,0,0-4.49086-.112,14.79035,14.79035,0,0,0-8.09878,3.03162,4.81328,4.81328,0,0,0-1.81053,2.95495,4.99346,4.99346,0,0,0,.99124,3.2558c1.52012,2.08316,4.28778,3.5261,7.13157,4.302a21.38466,21.38466,0,0,0,4.43355.75889c.75086.07916,1.51084.06066,2.26618.07812.766-.03464,1.53824-.0578,2.30252-.11844a28.52448,28.52448,0,0,0,8.78885-2.15118,20.26472,20.26472,0,0,0,3.75082-2.17032,11.23636,11.23636,0,0,0,2.67737-2.90057,5.84913,5.84913,0,0,0,.92294-3.23661,8.64589,8.64589,0,0,0-.9834-3.47879,15.08846,15.08846,0,0,0-6.0108-5.50891,34.45106,34.45106,0,0,0-17.50073-3.66464,47.58793,47.58793,0,0,0-9.16295,1.13788A37.39584,37.39584,0,0,0,235.298,266.001a24.88167,24.88167,0,0,0-7.01624,4.91278,11.58154,11.58154,0,0,0-3.44171,6.50769,12.46156,12.46156,0,0,0-.04847,1.75033,6.17259,6.17259,0,0,0,.09639.9235,6.01416,6.01416,0,0,0,.16969.915,13.23278,13.23278,0,0,0,1.38162,3.53992,20.44538,20.44538,0,0,0,5.49837,6.0867,41.749,41.749,0,0,0,16.30673,7.09448,57.992,57.992,0,0,0,9.09679,1.27482,69.8498,69.8498,0,0,0,9.28485-.05512,72.92983,72.92983,0,0,0,18.17328-3.50845,47.974,47.974,0,0,0,15.667-8.4473c4.39435-3.6832,7.47034-8.42676,7.83389-13.22211.04807-.29821.01755-.60141.03562-.90078a5.99343,5.99343,0,0,0-.01548-.93061,14.73042,14.73042,0,0,0-.183-1.92263,20.48739,20.48739,0,0,0-.921-3.76969,25.28425,25.28425,0,0,0-3.99243-6.9953,42.82769,42.82769,0,0,0-13.57379-10.75432c-10.682-5.56926-23.10651-8.19374-35.43432-8.58368a121.59993,121.59993,0,0,0-18.67511.8622c-3.10365.339-6.17739.856-9.23187,1.43419-3.04237.6281-6.06717,1.3293-9.039,2.17308a92.29865,92.29865,0,0,0-17.11989,6.60474,65.89012,65.89012,0,0,0-7.76841,4.55,51.50768,51.50768,0,0,0-6.87088,5.49325,34.55431,34.55431,0,0,0-9.33441,13.62155,24.55558,24.55558,0,0,0-1.37266,7.7952,34.74373,34.74373,0,0,0,.96736,8.28751,35.25346,35.25346,0,0,0,2.99264,8.01687,43.77517,43.77517,0,0,0,4.76928,7.44568,68.92091,68.92091,0,0,0,13.24894,12.668,99.55389,99.55389,0,0,0,16.27034,9.64011,127.721,127.721,0,0,0,17.9225,6.978,172.70233,172.70233,0,0,0,38.37813,7.01837.65175.65175,0,0,1,0,1.3Z" transform="translate(0.20984 -33.91327)" fill="#ffe000"/><ellipse cx="256.25246" cy="244.02798" rx="35" ry="21.875" fill="#ffe000"/><line x1="0.20984" y1="443.08673" x2="34.85085" y2="423.08673" fill="none"/><line x1="512.20984" y1="443.08673" x2="477.56882" y2="423.08673" fill="none"/><line x1="256.20984" y1="0.08673" x2="256.20984" y2="40.08673" fill="none"/><line x1="35.20984" y1="423.08673" x2="78.51111" y2="398.08673" fill="none"/><line x1="256.20984" y1="40.08673" x2="256.20984" y2="90.08673" fill="none"/><line x1="477.20984" y1="423.08673" x2="433.90857" y2="398.08673" fill="none"/></svg>